@startuml
skinparam monochrome true
skinparam packageStyle rectangle
skinparam shadowing false
'skinparam linetype ortho
'left to right direction
skinparam classAttributeIconSize 0
hide circle
hide methods

'title Domain Model

class User{
    name
    email
    password
}

class Role{
    name
    description
}

class  Map{
    name
    Width
    Height
}

User "*" -- "1" Role : has
User "1" -- "*" Map : manages
@enduml
